<svg xmlns:xlink="http://www.w3.org/1999/xlink" xmlns="http://www.w3.org/2000/svg" viewBox="0 0 100 100" class="icon header-link__icon" width="100"  height="100" ><defs><symbol id="icon-account" viewBox="0 0 32 32"><title>account</title><path fill="none" fill-rule="evenodd" stroke="#192D21" stroke-width="1.5px" d="M25.99 23.208c-.765-.528-3.737-2.49-4.011-3.574-.337-1.33-.438-2.846-.115-3.337 1.008-1.54 1.612-5.953 1.612-8.086C23.476 3.25 20.214 1 16.19 1c-4.022 0-7.284 2.25-7.284 7.21 0 2.505.833 7.22 2.174 8.847.224.273.189 1.315 0 2.32-.19 1.005-2.254 2.48-2.868 2.723-.941.37-1.79.807-2.471 1.3C1.902 26.174 1 25.832 1 31h30c0-5.288-1.02-5.038-5.01-7.792z"></path></symbol></defs><use xlink:href="#icon-account" fill="#192D21"></use></svg>