<svg xmlnsXlink="http://www.w3.org/1999/xlink" xmlnsSvg="http://www.w3.org/2000/svg" xmlns="http://www.w3.org/2000/svg" height="529.40997" width="1090" xmlSpace="preserve" viewBox="0 0 1090 529.41" y="0px" x="0px"><g transform="matrix(4.6017277,0,0,4.6017277,-1125.7917,-923.60501)"><path d="m 279.91,267.02 c -4.84,-1.35 -9.82,0.48 -12.99,4.78 -3.09,4.19 -3.32,11.05 -0.51,15.62 1.57,2.55 3.59,4.16 6.17,4.92 4.05,1.2 7.39,0.65 10.11,-1.71 -0.45,4.79 -3.05,9.2 -7.94,13.45 -0.34,0.3 -0.36,0.81 -0.05,1.29 0.21,0.33 0.54,0.61 0.87,0.61 0.09,0 0.18,-0.02 0.27,-0.06 0.24,-0.12 6.03,-2.99 9.25,-8.4 4.14,-6.96 5.34,-16.39 2.91,-22.93 -1.37,-3.66 -4.46,-6.56 -8.09,-7.57 z m 0.66,21.44 c -1.02,1.03 -2.21,1.6 -3.35,1.6 -0.01,0 -0.02,0 -0.03,0 -3.56,-0.03 -7.16,-3.01 -7.18,-9.58 -0.01,-2.62 0.65,-5.21 1.95,-7.7 0.96,-1.84 2.55,-2.94 4.37,-3.02 0.07,0 0.14,0 0.21,0 1.78,0 3.49,1.02 4.61,2.76 1.43,2.21 2.29,5.13 2.3,7.81 0.02,3.25 -1.06,6.29 -2.88,8.13 z"></path><path d="m 433.12,268.15 c -0.76,8.37 -0.37,8.63 -0.11,8.8 0.64,0.43 1.62,0.15 1.84,0.06 l 0.24,-0.1 0.05,-0.26 c 0.12,-0.59 0.18,-1.24 0.25,-1.86 0.05,-0.5 0.1,-1.01 0.18,-1.5 2.32,-0.01 4.35,-0.01 6.76,-0.01 2.24,0 4.9,0.02 7.35,0.06 l -8.87,25.05 c -2.43,6.87 -2.22,7.16 -2.13,7.29 l 0.15,0.21 5.66,-0.02 10.74,-38.26 -22.07,0.09 z"></path><path d="m 258.35,303.08 c -0.53,-0.05 -2.14,-0.18 -3.16,-0.23 -0.55,-0.03 -0.61,-1 -0.6,-1.96 v -0.24 l -0.03,-6.88 c -0.01,-2.93 -0.18,-26.39 -0.18,-26.39 v -0.7 l -0.66,0.23 c -0.24,0.08 -5.94,2.07 -6.79,2.51 -0.54,0.28 -0.5,1.09 -0.43,1.56 l 0.06,0.43 h 0.43 c 0.92,-0.01 1.92,-0.01 2.47,0 l 0.11,29.31 c 0.01,2.19 -0.81,2.22 -1.54,2.25 l -0.19,0.01 c -0.57,0.04 -1.31,0.05 -1.78,0.06 l -0.35,0.01 c -0.15,0 -0.43,0.07 -0.61,0.43 -0.19,0.37 -0.29,1.18 -0.04,1.55 l 0.2,0.25 0.26,0.01 c 1.28,0.04 2.63,0.03 3.98,0.03 0.9,0 1.79,0 2.66,0.01 1.25,0.01 2.48,0.02 3.53,0.02 1.31,0 2.36,-0.01 2.89,-0.03 0.14,0 0.59,-0.08 0.61,-0.82 0.03,-0.65 -0.23,-1.36 -0.84,-1.42 z"></path><path d="m 459.06,267.55 -0.04,0.45 c -0.76,8.37 -0.37,8.63 -0.11,8.81 0.64,0.43 1.62,0.15 1.84,0.05 l 0.24,-0.1 0.05,-0.26 c 0.12,-0.59 0.18,-1.24 0.25,-1.86 0.05,-0.5 0.1,-1.01 0.18,-1.5 2.32,-0.01 4.35,-0.01 6.76,-0.01 2.24,0 4.9,0.02 7.35,0.06 l -8.87,25.05 c -2.43,6.87 -2.22,7.16 -2.13,7.29 l 0.15,0.21 5.66,-0.02 10.74,-38.26 z"></path><path d="m 353.83,233.48 c -0.76,-0.47 -1.62,-0.03 -1.84,0.81 -0.34,1.32 0.37,2.95 0.85,4.15 0.37,0.92 0.98,1.77 1.29,2.7 0.21,0.64 0.02,1.37 -0.54,1.79 -0.66,0.49 -1.71,0.24 -2.47,0.19 -1,-0.07 -3.19,-0.6 -3.74,0.46 -0.51,1.01 0.6,1.65 1.34,2.11 1.33,0.82 2.91,1.04 4.44,0.79 1.47,-0.23 3.23,-0.71 4.03,-2.07 1.11,-1.89 -0.16,-3.84 -0.9,-5.63 -0.4,-0.95 -0.79,-1.89 -1.19,-2.84 -0.29,-0.67 -0.58,-2.09 -1.27,-2.46 z"></path><path d="m 342.67,234.1 c -1.11,0.28 -3.17,1.56 -3.32,2.88 -0.07,0.65 0.67,1.34 1.25,1.49 0.87,0.22 2.08,0.07 2.94,-0.12 0.87,-0.19 1.95,-0.59 2.58,-1.27 0.52,-0.57 0.68,-1.72 0.03,-2.27 -0.75,-0.92 -2.41,-0.98 -3.48,-0.71 z"></path><path d="m 350.35,248.59 c -0.59,0.23 -1.25,0.4 -1.57,0.99 -0.23,0.43 -0.46,1.05 -0.05,1.36 0.93,0.7 3.03,0.3 4.04,0.05 0.93,-0.23 3.57,-1.14 2.15,-2.39 -1.24,-1.1 -3.19,-0.56 -4.57,-0.01 z"></path><path d="m 434.08,261.28 c 0.43,-0.91 0.76,-1.89 1.09,-2.84 0.24,-0.67 0.5,-1.35 0.71,-2.03 0.38,-1.24 0.19,-2.36 -0.2,-3.57 -0.21,-0.67 -0.45,-1.27 -0.69,-1.94 -0.31,-0.83 -0.37,-1.73 -0.66,-2.57 -0.45,-1.28 -1.47,-2.27 -2.7,-2.82 -1.2,-0.53 -2.69,-0.7 -3.97,-0.88 -0.78,-0.11 -1.34,-0.02 -1.92,-0.64 -0.68,-0.72 -1.11,-1.65 -1.77,-2.39 -1.18,-1.33 -2.55,-2.54 -3.81,-3.8 -2.29,-2.3 -4.68,-3.97 -7.6,-5.4 -3.3,-1.62 -6.99,-2.49 -10.54,-3.38 -1.79,-0.45 -3.58,-0.9 -5.36,-1.41 -1.59,-0.46 -3.46,-0.78 -4.92,-1.59 -3.25,-1.8 -3.74,-6.29 -3.38,-9.62 0.21,-1.89 0.33,-3.82 0.33,-5.72 0,-1.85 -1.36,-3.36 -3.16,-3.78 -2.1,-0.5 -4.23,1.05 -5.71,2.38 -1.72,1.55 -2.93,3.34 -3.24,5.65 -0.32,2.31 0,4.63 0.89,6.77 0.45,1.09 0.93,2.2 1.46,3.26 0.42,0.83 1.22,1.56 1.46,2.47 -0.98,-0.63 -2.98,1.45 -3.62,2.02 -1.28,1.15 -2.49,2.37 -3.72,3.57 -2.98,2.89 -6.72,4.64 -10.07,7.04 0.04,-1.65 0.35,-3.15 0.95,-4.69 0.44,-1.14 0.87,-2.65 2,-3.3 1.2,-0.68 2.36,-1.12 3.38,-2.11 1.03,-1 1.86,-2.24 2.44,-3.55 1.96,-4.42 0.14,-10.18 -3.49,-13.26 -1.01,-0.85 -2.12,-1.34 -3.32,-1.84 -1.06,-0.44 -2.2,-0.65 -3.25,-1.17 -1.15,-0.56 -2.18,-1.34 -3.07,-2.25 -0.91,-0.93 -1.55,-2.07 -2.45,-3 -2.05,-2.13 -4.97,-3.63 -7.93,-3.86 -2.59,-0.21 -5.37,0.65 -7.77,1.56 -1.57,0.6 -3.04,1.45 -4.56,2.15 -1.5,0.69 -3.02,1.34 -4.55,1.97 -2.39,0.99 -4.7,2.05 -6.98,3.28 -2.41,1.3 -4.07,3.58 -5.86,5.6 -1.13,1.26 -2.26,2.53 -3.42,3.76 -1.08,1.14 -2.27,2.2 -3.27,3.42 -1.71,2.08 -2.83,4.56 -3.42,7.18 -0.27,1.16 -0.43,2.35 -0.54,3.54 -0.05,0.56 -0.09,1.13 -0.11,1.69 -0.02,0.57 0.15,1.41 -0.02,1.97 -0.29,0.98 -2.56,1.38 -3.47,1.68 -0.57,0.19 -1.14,0.41 -1.67,0.7 -0.54,0.31 -0.59,0.46 -1.16,0.3 -2.44,-0.66 -4.88,-1.5 -7.43,-1.51 -2.78,-0.01 -5.84,0.55 -8.11,2.25 -1.58,1.18 -3.4,2.6 -4.61,4.12 -1.35,1.7 -1.58,4.52 -0.52,6.42 1.47,2.64 3.78,4.7 5.2,7.36 1.34,2.51 2.47,5.15 3.89,7.62 1.33,2.32 3.03,4.43 5.08,6.15 0.87,0.73 2.37,1.36 2.91,2.39 0.28,0.54 0.26,1.14 0.26,1.73 0.01,0.92 0.02,1.84 0.03,2.76 0.02,1.5 -0.09,3.01 -0.37,4.48 -0.2,1.07 -0.22,2.15 -0.38,3.23 -0.34,2.33 -0.99,7.21 1.91,9.66 1.76,1.49 3.86,1.6 5.58,2.86 1.95,1.43 3.92,2.84 5.98,4.11 1.8,1.11 3.75,1.96 5.62,2.95 2.53,1.34 5.11,2.33 7.82,3.2 1.38,0.44 4.97,2.23 7.86,3.48 2.07,0.9 4.89,-2.57 4.28,-4.43 -0.33,-1 -0.55,-1.93 -0.36,-2.98 0.25,-1.42 0.89,-2.76 1.38,-4.11 0.89,-2.46 1.9,-4.82 3.22,-7.08 1.48,-2.54 3.21,-4.93 5,-7.26 0.91,-1.19 1.85,-2.36 2.77,-3.55 0.08,-0.1 0.23,-0.38 0.34,-0.43 0.32,-0.16 0,-0.07 0.32,-0.01 0.25,0.05 0.58,0.38 0.79,0.52 0.64,0.42 1.28,0.84 1.91,1.26 4.4,2.94 8.79,6.1 13.5,8.52 2.27,1.17 4.57,2.3 6.83,3.48 -0.93,0.37 -1.88,1.09 -2.71,1.66 -0.59,0.4 -1.14,0.89 -1.62,1.43 -1.25,1.43 -2.15,3.36 -2.67,5.16 -0.65,2.23 -0.61,4.64 0.43,6.74 0.8,1.62 2.33,3.83 4.37,3.6 4.39,-0.5 3.91,-6.64 5.04,-9.64 1.57,-4.17 6.78,-4.64 10.56,-5.31 3.85,-0.69 7.75,-1.16 11.62,-1.77 1.76,-0.28 3.57,-0.48 5.29,-0.95 1.97,-0.54 3.88,-1.36 5.67,-2.32 8.47,-4.56 15.03,-12.84 17.66,-22.07 0.28,-0.96 0.51,-1.95 0.8,-2.9 0.29,-0.93 0.85,-1.78 1.37,-2.6 0.53,-0.84 1.57,-1.28 2.22,-2.09 0.68,-0.85 1.14,-1.89 1.93,-2.64 0.77,-0.72 1.5,-1.02 1.98,-2.04 z m -15.3,-20.16 c 0.77,0.75 1.51,1.39 2.14,2.29 0.71,1 1.31,2.08 2.02,3.08 -0.86,0.48 -1.69,1.01 -2.52,1.55 -0.13,-1.37 -0.76,-2.74 -1.26,-4.01 -0.25,-0.62 -0.5,-1.23 -0.75,-1.84 -0.08,-0.2 -0.27,-0.51 -0.28,-0.73 -0.02,-0.43 0.24,-0.74 0.65,-0.34 z m -37.69,-26 c 0.24,-0.94 1.31,-1.83 2.03,-2.4 0.31,-0.25 0.98,-0.93 1.33,-0.44 0.11,0.15 -0.03,0.81 -0.04,0.97 -0.02,0.44 -0.05,0.87 -0.08,1.31 -0.17,2.62 -0.45,5.16 0.27,7.74 0.12,0.43 1.28,2.74 1.02,2.94 -0.28,0.21 -2.33,-1.78 -2.54,-2.03 -0.8,-0.95 -1.28,-2.4 -1.71,-3.55 -0.55,-1.47 -0.63,-3.02 -0.28,-4.54 z m -6.14,20.25 c 1.55,-1.14 3.04,-2.43 4.73,-3.36 1.15,-0.63 2.37,-1.12 3.6,-1.57 0.51,-0.19 0.96,-0.44 1.51,-0.36 0.62,0.09 1.31,0.48 1.89,0.72 4.32,1.81 8.7,3.23 13.25,4.41 2.55,0.66 5.14,1.27 7.64,2.1 1.15,0.38 2.2,1.05 3.21,1.71 1.16,0.76 2.43,1.59 3.42,2.56 0.63,0.62 0.99,1.49 1.36,2.28 0.31,0.67 0.71,1.32 0.83,2.04 0.37,2.28 0.33,5.2 -1.28,7.06 0.02,0 0.03,0 0.05,-0.01 -1.02,0.77 -1.87,1.72 -2.95,2.43 -0.67,0.44 -1.4,0.83 -2.12,1.19 -2.78,1.42 -5.79,1.1 -8.79,0.85 -2.82,-0.24 -5.75,-0.26 -8.54,-0.73 -1.7,-0.28 -3.36,-0.62 -5.1,-0.69 -6.27,-0.26 -12.52,-0.75 -18.77,-1.35 -2.56,-0.25 -5.15,-0.43 -7.69,-0.83 0.82,-1.33 0.99,-2.93 1.4,-4.41 0.25,-0.91 0.35,-1.83 0.37,-2.77 0.01,-0.41 -0.25,-2.23 0.04,-2.44 4.01,-2.88 7.95,-5.89 11.94,-8.83 z m -18.47,-0.61 c 0.49,0.23 1.19,0.17 1.73,0.21 0.98,0.07 1.14,0.06 1.09,1.04 -0.07,1.34 -0.22,2.69 -0.32,4.03 -0.2,2.55 -0.15,5.18 -0.59,7.7 -0.19,1.07 -0.48,2.11 -0.84,3.14 -0.38,1.09 -0.68,2.28 -1.61,3.05 -0.87,0.72 -2.03,0.68 -3.09,0.77 -1.28,0.11 -2.56,0.21 -3.85,0.3 -1.23,0.09 -2.45,0.18 -3.68,0.27 -1.11,0.09 -2.27,0.28 -3.39,0.15 -2.23,-0.25 -3.42,-1.9 -4.83,-3.45 -0.76,-0.84 -2.16,-3.17 -3.44,-2.43 -0.86,0.5 -0.71,1.64 -0.49,2.44 0.15,0.54 0.36,1.06 0.64,1.54 0.3,0.52 0.82,0.93 1.11,1.44 0.18,0.33 0.34,0.45 -0.16,0.47 -0.44,0.02 -1.04,-0.3 -1.46,-0.46 -1.16,-0.44 -2.26,-1.03 -3.27,-1.74 -1.18,-0.84 -3.89,-2.68 -3.48,-4.34 0.27,-1.08 0.88,-2.14 1.19,-3.22 0.24,-0.84 0.46,-1.69 0.68,-2.54 0.16,-0.59 0.29,-2 0.83,-2.36 0.64,-0.42 1.62,0.86 2.08,1.26 0.41,0.36 0.82,0.73 1.39,0.75 1.09,0.05 1.56,-1.12 1.59,-2.04 0.03,-0.99 -0.36,-2.06 -0.12,-3.03 0.2,-0.79 0.77,-1.68 1.21,-2.34 1.05,-1.58 2.7,-2.6 4.39,-3.39 1.15,-0.53 2.37,-0.96 3.65,-0.93 1.13,0.03 2.12,0.66 3.24,0.62 0.63,-0.02 1.72,-0.24 1.79,-0.99 0.1,-1.09 -1.89,-1.97 -2.67,-2.23 -1.95,-0.66 -4.14,-0.56 -6.11,-0.04 0.5,-0.81 1.78,-1.12 2.62,-1.39 1.07,-0.33 2.22,-0.56 3.34,-0.44 1.08,0.12 2.09,0.53 3.16,0.66 1.23,0.16 2.47,0.07 3.71,-0.03 -0.04,1.1 -1.01,1.81 -0.81,3.01 0.28,1.65 1.5,1.46 2.67,0.75 0.98,-0.6 1.92,-1.2 3.04,-1.52 0.59,-0.17 3.9,-0.73 3.77,0.59 -0.01,0.06 -3.4,0.64 -3.57,0.69 -1.46,0.5 -3.32,3.03 -1.14,4.03 z m -42.06,-6.96 c 1.18,-1.94 2.82,-3.41 4.49,-4.91 0.91,-0.82 1.81,-1.67 2.61,-2.59 0.84,-0.97 1.43,-2.12 2.27,-3.07 1.69,-1.92 5.61,-2.91 7.9,-3.73 1.21,-0.43 1.97,-0.76 3.11,-1.35 1.24,-0.64 2.32,-1.53 3.54,-2.2 1.77,-0.97 3.74,-2.08 5.68,-2.61 2.47,-0.67 5.87,-1.37 7.87,0.7 1.03,1.06 1.62,2.52 2.63,3.63 1.01,1.12 2.91,2.38 4.2,3.15 2.05,1.23 4.91,1.51 6.44,3.5 0.9,1.17 1.41,2.84 1.33,4.27 -0.04,0.81 -0.76,3.08 -1.67,3.48 -0.48,0.16 -1.42,-0.58 -1.84,-0.77 -0.62,-0.29 -1.25,-0.55 -1.89,-0.79 -1.25,-0.46 -2.52,-0.83 -3.82,-1.14 -2.29,-0.54 -4.61,-0.92 -6.93,-1.26 -4.99,-0.72 -9.88,-0.28 -13.96,2.97 -2.04,1.63 -4.3,3.29 -6.1,5.18 -1.89,1.99 -2.77,4.5 -4.16,6.8 -1.16,1.92 -1.79,3.79 -2.19,5.98 -0.22,1.24 -0.72,3.07 -2.25,3.21 -2.29,0.21 -4.38,-1.76 -5.69,-3.4 -1.71,-2.15 -3.43,-4.95 -3.49,-7.66 -0.06,-2.59 0.57,-5.16 1.92,-7.39 z m 18.57,71.98 c -0.48,0.61 -1.31,0.73 -2.06,0.69 -1.47,-0.07 -2.87,-0.82 -4.19,-1.42 -1.35,-0.62 -3.09,-0.87 -4.5,-1.34 -1.33,-0.45 -2.59,-1.01 -3.84,-1.64 -1.3,-0.65 -2.5,-1.35 -3.93,-1.68 -0.56,-0.13 -3.07,-0.56 -2.41,0.8 0.18,0.36 0.76,0.75 1.04,1.02 0.59,0.54 1.2,1.05 1.89,1.47 1.43,0.86 3.03,1.72 4.56,2.38 0.91,0.39 1.85,0.61 2.72,1.09 0.68,0.38 1.75,0.35 2.42,0.73 1.83,1.02 3.85,1.72 5.9,2.13 -0.2,0.35 -1.06,1.77 -1.4,1.86 -0.27,0.08 -0.84,-0.13 -1.11,-0.2 -0.42,-0.11 -0.84,-0.24 -1.26,-0.37 -1.19,-0.36 -2.38,-0.72 -3.56,-1.09 -2.49,-0.78 -4.86,-1.69 -7.27,-2.66 -1.57,-0.63 -2.9,-1.52 -4.27,-2.53 -2.2,-1.61 -4.34,-3.33 -6.3,-5.24 -0.91,-0.89 -1.84,-1.82 -2.52,-2.91 -0.46,-0.74 -0.34,-1.5 -0.33,-2.36 0.02,-1.28 0.06,-2.57 0.11,-3.85 1.28,0.9 2.6,1.69 4.01,2.35 1.34,0.63 2.74,1.14 3.97,1.96 1.12,0.75 2.11,1.66 3.23,2.41 1.21,0.81 2.52,1.22 3.85,1.77 1.35,0.55 2.68,1.2 4.11,1.5 1.29,0.28 2.41,0.68 3.59,1.27 2.57,1.28 5.38,2.02 8.24,2.25 -0.4,0.8 -0.13,0.9 -0.69,1.61 z m 9.65,-26.15 c -1.86,0.78 -4.1,1.64 -5.23,3.43 -1.04,1.65 1.55,2.42 2.78,2.24 1.19,-0.17 2.4,-0.72 3.54,-1.09 0.96,-0.31 1.91,-0.62 2.87,-0.92 -2.6,3.21 -4.84,6.69 -6.92,10.26 -1.05,1.82 -2.08,3.65 -3.11,5.49 -0.77,1.37 -3.74,1.05 -5.08,0.69 -2.11,-0.57 -4.14,-1.39 -6.21,-2.07 -1.23,-0.4 -2.53,-0.51 -3.74,-0.94 -1.07,-0.37 -2.12,-0.82 -3.18,-1.21 -0.69,-0.25 -1.38,-0.49 -2,-0.88 -1.03,-0.65 -1.83,-1.59 -2.81,-2.3 -1.83,-1.33 -4.11,-1.95 -6.05,-3.11 -1.69,-1.02 -3.77,-2.45 -4.37,-4.44 -0.3,-1 -0.1,-2.15 -0.1,-3.18 0,-1.53 0.1,-3.04 0.23,-4.56 0.19,-2.13 0.41,-4.26 0.64,-6.39 0.15,-1.35 0.38,-2.73 0.4,-4.09 0.01,-0.83 -0.01,-2.32 -0.76,-2.88 -0.92,-0.69 -2.38,-0.47 -2.95,0.52 -0.55,0.95 -0.79,2.09 -0.97,3.16 -0.16,1.01 -0.26,2.03 -0.37,3.05 -0.09,0.74 -0.17,1.49 -0.26,2.23 -0.09,0.73 -0.05,1.74 -0.35,2.42 -3.43,-2.26 -5.57,-5.85 -7.09,-9.59 -0.82,-2.02 -2.04,-3.84 -3.37,-5.56 -1.24,-1.61 -3.41,-3.43 -3.16,-5.64 0.28,-2.49 2.19,-3.5 4.32,-4.3 2,-0.75 4.15,-1.05 6.26,-0.62 2.34,0.48 4.4,2.16 6.83,2.1 2.28,-0.06 4.38,-1.29 6.54,-1.88 2.05,-0.57 3.22,1.8 4.43,3.06 1.46,1.51 2.93,2.71 4.97,3.35 1.16,0.37 2.38,0.55 3.57,0.79 1.16,0.23 1.72,1.47 2.46,2.35 2.61,3.13 5.86,5.6 9.91,6.47 3.39,0.73 6.92,0.15 10.33,-0.1 4.15,-0.31 8.3,-0.47 12.47,-0.52 5.17,-0.06 10.35,-0.07 15.48,0.61 2.17,0.29 4.29,0.25 6.47,0.2 2.21,-0.05 4.48,0.21 6.68,0.42 2.56,0.24 5.12,0.52 7.68,0.78 1.3,0.14 2.6,0.27 3.9,0.41 0.77,0.08 4.17,-0.04 4.65,0.52 0.55,0.65 0.83,1.85 1.15,2.63 0.23,0.56 0.44,1.12 0.63,1.7 0.1,0.3 0.34,1.82 -0.11,1.84 -2.32,0.11 -7.97,0.38 -10.28,0.55 -4.85,0.35 -9.73,0.63 -14.56,1.2 -2.98,0.35 -5.99,0.51 -8.98,0.66 -2.57,0.13 -5.13,0.09 -7.7,0.14 -2.49,0.04 -4.97,0.31 -7.46,0.49 -4.15,0.3 -8.15,0.88 -12.02,2.51 z m 28.63,30.74 c -0.95,2.08 -0.7,4.5 -1.61,6.58 -1.38,-1.9 -0.9,-4.22 0.06,-6.18 0.45,-0.92 0.89,-1.75 1.69,-2.42 0.34,-0.28 1.42,-1.26 1.86,-1.13 -0.86,0.91 -1.54,1.99 -2,3.15 z m 28.5,-14.15 c -1.4,0.71 -3.08,1.03 -4.58,1.44 -1.85,0.49 -3.71,0.94 -5.58,1.35 -1.82,0.4 -3.65,0.78 -5.51,1.02 -0.91,0.11 -1.8,0.21 -2.7,0.38 -0.48,0.09 -0.96,0.19 -1.44,0.3 -0.42,0.09 -1.03,0.38 -1.45,0.33 -0.64,-0.07 -1.43,-0.56 -2.03,-0.8 -0.57,-0.23 -1.12,-0.48 -1.68,-0.74 -0.77,-0.37 -1.54,-0.69 -2.31,-1.03 -3.28,-1.44 -6.65,-2.83 -9.65,-4.82 -1.93,-1.28 -3.75,-2.7 -5.75,-3.86 -1.97,-1.16 -4.02,-2.2 -6.03,-3.28 4.01,-3.73 8.99,-5.5 14.38,-5.94 5.17,-0.43 10.37,-0.17 15.54,-0.56 3.34,-0.26 6.64,-0.7 9.96,-1.08 2.88,-0.33 5.84,-0.37 8.74,-0.54 2.32,-0.13 4.72,-0.12 7.02,-0.47 1.49,-0.23 2.96,-0.58 4.47,-0.73 2.01,-0.21 3.95,-0.23 5.93,-0.71 0,0.19 -0.01,1.47 -0.27,1.6 -0.54,2.09 -1.77,3.95 -2.97,5.73 -1.25,1.86 -2.65,3.61 -4.2,5.23 -2.86,2.96 -6.2,5.32 -9.89,7.18 z m 24.18,-22.07 c -0.47,1.97 -0.9,3.94 -1.6,5.84 -0.79,2.12 -1.82,4.16 -3.01,6.09 -2.33,3.78 -5.33,7.36 -9.03,9.92 -0.8,0.55 -1.64,1.06 -2.53,1.48 -0.56,0.26 -1.88,1.04 -2.51,0.73 -1.02,-0.5 0.94,-1.39 1.29,-1.63 0.93,-0.63 1.83,-1.31 2.7,-2.03 3.55,-2.97 6.37,-6.65 8.65,-10.62 1.25,-2.16 2.37,-4.31 2.79,-6.78 0.09,-0.55 0.13,-1.08 0.12,-1.63 -0.02,-0.67 0.06,-0.7 0.68,-0.93 0.83,-0.31 1.61,-0.51 2.49,-0.63 -0.01,0.08 -0.03,0.13 -0.04,0.19 z m 7.33,-14.29 c -0.45,1.09 -3.44,-0.47 -4.31,-0.49 -1.06,-0.02 -2.22,0.96 -1.73,2.08 0.44,1.03 1.69,1.12 2.65,1.25 0.98,0.14 3.78,0.29 2.88,1.93 -0.48,0.87 -1.74,1.8 -2.76,1.19 -0.29,-0.16 -0.59,-0.29 -0.88,-0.46 -1.32,-0.73 -3.67,-1.27 -4.57,0.43 -1.07,2.03 2.36,1.8 3.27,2.43 0.45,0.31 0.97,1.7 0.11,1.88 -0.36,0.07 -1.27,-0.38 -1.65,-0.44 -0.57,-0.09 -1.15,-0.13 -1.73,-0.09 -1.22,0.08 -2.39,0.48 -3.44,1.09 -0.88,0.51 -1.62,1.42 -2.58,1.75 -1.61,0.56 -4.1,1.32 -5.57,0.13 -1.26,-1.02 -2.92,-3.47 -2.13,-5.16 0.38,-0.82 1.86,-1.12 2.62,-1.45 0.81,-0.35 1.66,-0.68 2.42,-1.12 1.69,-0.99 3.37,-2.52 4.8,-3.86 1.7,-1.58 3.19,-3.42 5.29,-4.47 1.1,-0.55 2.22,-0.97 3.42,-1.23 0.81,-0.18 2.55,-0.57 3.31,-0.04 -0.56,0.94 -1.9,0.73 -2.82,0.87 -1.72,0.26 -1.63,2.31 0.02,2.59 0.63,0.11 3.88,-0.03 3.38,1.19 z"></path></g></svg>